<svg id="visual" viewBox="0 0 960 540" width="960" height="540" xmlns="http://www.w3.org/2000/svg" xmlns:xlink="http://www.w3.org/1999/xlink" version="1.1"><rect x="0" y="0" width="960" height="540" fill="#FFFFFF"></rect><path d="M0 267L20 270.8C40 274.7 80 282.3 120 279.5C160 276.7 200 263.3 240 265.3C280 267.3 320 284.7 360 289C400 293.3 440 284.7 480 284C520 283.3 560 290.7 600 295.3C640 300 680 302 720 294C760 286 800 268 840 268.2C880 268.3 920 286.7 940 295.8L960 305L960 541L940 541C920 541 880 541 840 541C800 541 760 541 720 541C680 541 640 541 600 541C560 541 520 541 480 541C440 541 400 541 360 541C320 541 280 541 240 541C200 541 160 541 120 541C80 541 40 541 20 541L0 541Z" fill="#6600ff"></path><path d="M0 295L20 294.3C40 293.7 80 292.3 120 289.8C160 287.3 200 283.7 240 287.5C280 291.3 320 302.7 360 306.5C400 310.3 440 306.7 480 306.8C520 307 560 311 600 314C640 317 680 319 720 319C760 319 800 317 840 313.5C880 310 920 305 940 302.5L960 300L960 541L940 541C920 541 880 541 840 541C800 541 760 541 720 541C680 541 640 541 600 541C560 541 520 541 480 541C440 541 400 541 360 541C320 541 280 541 240 541C200 541 160 541 120 541C80 541 40 541 20 541L0 541Z" fill="#6f1ffb"></path><path d="M0 335L20 334.7C40 334.3 80 333.7 120 329C160 324.3 200 315.7 240 317.3C280 319 320 331 360 334.5C400 338 440 333 480 325.7C520 318.3 560 308.7 600 303.3C640 298 680 297 720 298.8C760 300.7 800 305.3 840 310.7C880 316 920 322 940 325L960 328L960 541L940 541C920 541 880 541 840 541C800 541 760 541 720 541C680 541 640 541 600 541C560 541 520 541 480 541C440 541 400 541 360 541C320 541 280 541 240 541C200 541 160 541 120 541C80 541 40 541 20 541L0 541Z" fill="#762ff7"></path><path d="M0 341L20 341.3C40 341.7 80 342.3 120 347C160 351.7 200 360.3 240 360.5C280 360.7 320 352.3 360 347C400 341.7 440 339.3 480 340.3C520 341.3 560 345.7 600 344.7C640 343.7 680 337.3 720 341.7C760 346 800 361 840 361C880 361 920 346 940 338.5L960 331L960 541L940 541C920 541 880 541 840 541C800 541 760 541 720 541C680 541 640 541 600 541C560 541 520 541 480 541C440 541 400 541 360 541C320 541 280 541 240 541C200 541 160 541 120 541C80 541 40 541 20 541L0 541Z" fill="#7d3cf3"></path><path d="M0 383L20 385C40 387 80 391 120 389.8C160 388.7 200 382.3 240 376.2C280 370 320 364 360 362.2C400 360.3 440 362.7 480 366.2C520 369.7 560 374.3 600 372.7C640 371 680 363 720 362C760 361 800 367 840 369.3C880 371.7 920 370.3 940 369.7L960 369L960 541L940 541C920 541 880 541 840 541C800 541 760 541 720 541C680 541 640 541 600 541C560 541 520 541 480 541C440 541 400 541 360 541C320 541 280 541 240 541C200 541 160 541 120 541C80 541 40 541 20 541L0 541Z" fill="#8347ee"></path><path d="M0 417L20 412.5C40 408 80 399 120 397.3C160 395.7 200 401.3 240 401C280 400.7 320 394.3 360 393.3C400 392.3 440 396.7 480 396.5C520 396.3 560 391.7 600 389.8C640 388 680 389 720 394C760 399 800 408 840 409.8C880 411.7 920 406.3 940 403.7L960 401L960 541L940 541C920 541 880 541 840 541C800 541 760 541 720 541C680 541 640 541 600 541C560 541 520 541 480 541C440 541 400 541 360 541C320 541 280 541 240 541C200 541 160 541 120 541C80 541 40 541 20 541L0 541Z" fill="#8951ea"></path><path d="M0 417L20 418.2C40 419.3 80 421.7 120 420.5C160 419.3 200 414.7 240 412.8C280 411 320 412 360 413.2C400 414.3 440 415.7 480 417C520 418.3 560 419.7 600 418.8C640 418 680 415 720 417C760 419 800 426 840 428C880 430 920 427 940 425.5L960 424L960 541L940 541C920 541 880 541 840 541C800 541 760 541 720 541C680 541 640 541 600 541C560 541 520 541 480 541C440 541 400 541 360 541C320 541 280 541 240 541C200 541 160 541 120 541C80 541 40 541 20 541L0 541Z" fill="#8e5be5"></path><path d="M0 468L20 463.2C40 458.3 80 448.7 120 446C160 443.3 200 447.7 240 452.5C280 457.3 320 462.7 360 460.5C400 458.3 440 448.7 480 447.5C520 446.3 560 453.7 600 453.8C640 454 680 447 720 444.7C760 442.3 800 444.7 840 446.7C880 448.7 920 450.3 940 451.2L960 452L960 541L940 541C920 541 880 541 840 541C800 541 760 541 720 541C680 541 640 541 600 541C560 541 520 541 480 541C440 541 400 541 360 541C320 541 280 541 240 541C200 541 160 541 120 541C80 541 40 541 20 541L0 541Z" fill="#9364e1"></path><path d="M0 473L20 476.2C40 479.3 80 485.7 120 485C160 484.3 200 476.7 240 473.5C280 470.3 320 471.7 360 473.5C400 475.3 440 477.7 480 480.2C520 482.7 560 485.3 600 487.2C640 489 680 490 720 490.2C760 490.3 800 489.7 840 489C880 488.3 920 487.7 940 487.3L960 487L960 541L940 541C920 541 880 541 840 541C800 541 760 541 720 541C680 541 640 541 600 541C560 541 520 541 480 541C440 541 400 541 360 541C320 541 280 541 240 541C200 541 160 541 120 541C80 541 40 541 20 541L0 541Z" fill="#976cdc"></path><path d="M0 502L20 503.8C40 505.7 80 509.3 120 508.3C160 507.3 200 501.7 240 500.8C280 500 320 504 360 504.3C400 504.7 440 501.3 480 501.5C520 501.7 560 505.3 600 506C640 506.7 680 504.3 720 502.8C760 501.3 800 500.7 840 501C880 501.3 920 502.7 940 503.3L960 504L960 541L940 541C920 541 880 541 840 541C800 541 760 541 720 541C680 541 640 541 600 541C560 541 520 541 480 541C440 541 400 541 360 541C320 541 280 541 240 541C200 541 160 541 120 541C80 541 40 541 20 541L0 541Z" fill="#9b75d7"></path></svg>